/* XPM */
static char *_cd69be1b49a47bfb2fd1bc8df381d15IqKPnKvXvhpgwNiI[] = {
/* columns rows colors chars-per-pixel */
"50 49 254 2 ",
"   c None",
".  c #191000",
"X  c #251C00",
"o  c #3C1700",
"O  c #392702",
"+  c #272B1A",
"@  c #392C17",
"#  c #2B2609",
"$  c #373B39",
"%  c #302B2B",
"&  c #172822",
"*  c #5A1C00",
"=  c #452801",
"-  c #4D3302",
";  c #483807",
":  c #563A03",
">  c #573E17",
",  c #5E2C00",
"<  c #673E09",
"1  c #4E3C2A",
"2  c #463C3A",
"3  c #38433C",
"4  c #4C4A18",
"5  c #5E4612",
"6  c #52480A",
"7  c #634402",
"8  c #6B4604",
"9  c #764702",
"0  c #6A5001",
"q  c #795505",
"w  c #684911",
"e  c #784D17",
"r  c #7B5415",
"t  c #685415",
"y  c #7B6418",
"u  c #756811",
"i  c #584829",
"p  c #474437",
"a  c #5B5037",
"s  c #67572A",
"d  c #785A28",
"f  c #6C5330",
"g  c #7B7228",
"h  c #776736",
"j  c #77692D",
"k  c #464746",
"l  c #4B514A",
"z  c #595856",
"x  c #544C51",
"c  c #695B49",
"v  c #6F5E59",
"b  c #756646",
"n  c #7B6756",
"m  c #787058",
"M  c #726B50",
"N  c #6A6465",
"B  c #757574",
"V  c #59686B",
"C  c #B92B04",
"Z  c #AD3300",
"A  c #833409",
"S  c #CC3C1A",
"D  c #824805",
"F  c #855703",
"G  c #845A14",
"H  c #905D0C",
"J  c #A84505",
"K  c #B35317",
"L  c #846909",
"P  c #9A6805",
"I  c #977707",
"U  c #886419",
"Y  c #887C1B",
"T  c #9B7815",
"R  c #966E11",
"E  c #A66804",
"W  c #AE7712",
"Q  c #845C21",
"!  c #805626",
"~  c #975F2E",
"^  c #976C26",
"/  c #977926",
"(  c #856835",
")  c #8C7A36",
"_  c #99793A",
"`  c #857029",
"'  c #AD782D",
"]  c #C25807",
"[  c #D27114",
"{  c #D74B27",
"}  c #CB5A22",
"|  c #D36D27",
" . c #827545",
".. c #917A49",
"X. c #957A57",
"o. c #857E53",
"O. c #867E69",
"+. c #917D66",
"@. c #B88905",
"#. c #B78A13",
"$. c #B79718",
"%. c #A48216",
"&. c #9E8622",
"*. c #948336",
"=. c #8A8332",
"-. c #A7872A",
";. c #B98929",
":. c #B49827",
">. c #AC873A",
",. c #B58C3A",
"<. c #A69433",
"1. c #B99A37",
"2. c #A59027",
"3. c #BBA72C",
"4. c #D99907",
"5. c #C3881A",
"6. c #C59919",
"7. c #D99A1A",
"8. c #C6900B",
"9. c #E19B17",
"0. c #E3980B",
"q. c #DDA816",
"w. c #C6A718",
"e. c #E6AB16",
"r. c #ECB919",
"t. c #F3BC1D",
"y. c #F7B81B",
"u. c #EAAC09",
"i. c #C78B26",
"p. c #C89825",
"a. c #C59739",
"s. c #DB9032",
"d. c #C6A329",
"f. c #DAA728",
"g. c #DAB429",
"h. c #C9A737",
"j. c #D8A936",
"k. c #CAB23E",
"l. c #DAB43A",
"z. c #E9B927",
"x. c #F4BC23",
"c. c #FABB25",
"v. c #F3BB2A",
"b. c #FCBC2B",
"n. c #F7B524",
"m. c #E6AC35",
"M. c #F9AB38",
"N. c #E8BA39",
"B. c #F4BD32",
"V. c #F8B836",
"C. c #EFA02B",
"Z. c #F99A2C",
"A. c #EAC11C",
"S. c #EECB2B",
"D. c #ECC529",
"F. c #F4C424",
"G. c #FBC224",
"H. c #F5C628",
"J. c #EAC837",
"K. c #FAC438",
"L. c #F4D33C",
"P. c #F8D639",
"I. c #EDD43C",
"U. c #F7E03C",
"Y. c #9B854D",
"T. c #8D8656",
"R. c #938457",
"E. c #A88447",
"W. c #A19045",
"Q. c #B89944",
"!. c #A79858",
"~. c #B69858",
"^. c #B08A53",
"/. c #BBAA55",
"(. c #B3A34B",
"). c #978864",
"_. c #AA9768",
"`. c #B89568",
"'. c #A98E67",
"]. c #B6A464",
"[. c #D09B5B",
"{. c #ED9E49",
"}. c #E29456",
"|. c #C9A647",
" X c #D6A747",
".X c #C9B847",
"XX c #D5B749",
"oX c #C5A557",
"OX c #CBB458",
"+X c #D8B856",
"@X c #E4BA48",
"#X c #F9BD4C",
"$X c #E7BD55",
"%X c #EEAA4C",
"&X c #C5A866",
"*X c #C7B361",
"=X c #D6BE77",
"-X c #D2BB69",
";X c #EBB96A",
":X c #DAC65A",
">X c #DBCA51",
",X c #E7C747",
"<X c #F4CD46",
"1X c #EDDD4B",
"2X c #ECD549",
"3X c #FADC4C",
"4X c #F7D846",
"5X c #E6C758",
"6X c #EBD759",
"7X c #F4DB53",
"8X c #FDDD53",
"9X c #F3DD5E",
"0X c #FEDD5D",
"qX c #F7D457",
"wX c #FFC556",
"eX c #EDE34A",
"rX c #F5E44D",
"tX c #FCE44D",
"yX c #FAE64B",
"uX c #F4E553",
"iX c #FDE453",
"pX c #FBEA54",
"aX c #F5E35C",
"sX c #FDE45A",
"dX c #FDEA5B",
"fX c #F6EA52",
"gX c #FCF155",
"hX c #F2EB55",
"jX c #DBC868",
"kX c #DAC677",
"lX c #CBC27D",
"zX c #E5C767",
"xX c #EAD766",
"cX c #FFDB6A",
"vX c #FADA64",
"bX c #F5C471",
"nX c #EADB78",
"mX c #F4D974",
"MX c #F8CE60",
"NX c #EDE666",
"BX c #FDE363",
"VX c #F5EB64",
"CX c #FBE769",
"ZX c #FCEA73",
"AX c #FAE778",
"SX c #EFE77C",
"DX c #BAA485",
"FX c #8A8D8F",
"GX c #C0AB85",
"HX c #DAC283",
"JX c #FDEB88",
"KX c #FFF58B",
"LX c #FFF895",
"PX c #FFF2A3",
/* pixels */
"                                      V z                                                     x x   ",
"                                      $ k B FX                                              N $ % k ",
"                                      3 k k % N                                         v $ k 3 % k ",
"                                      p l z 2 @ n                                     T.c z l 3 $   ",
"                                      $ p a  .j d GX                                =.lXR.p $ & z   ",
"                                      N @ s *XnXQ.~.                              *.jXJX!.4 + 3     ",
"                                        s W.:XaX2X1._.                          _ +X9XCXnXh +       ",
"                                        s OXBXtXpXd.Q.                          -.qX8XBXnXj +       ",
"                                         .Q.vX8XtX<X1.~.                      E.5X0XiX9XjXh O.      ",
"            X.'.                          ( |.BX8XqXa.>.  Y.....Y.) Y.        T qXsXsX5X`           ",
"          ].OXOX`.                        b Q.vXvXj.T / -XkXHXHXkX-XOX+XoX,.a.@XBXaXmX) _.          ",
"        !.+XvXcX|.~.                        E.|.j.h.5X:XmXJXPXPXLXKXZXqX@Xd.j.BXaXxXW.              ",
"        <.BX8XiXBX|.=X                        ,.1.:XJXKXLXLXLXLXAXZXZXBXdXiX3XsX6X<._.              ",
"      /.k.3XpXyXrXaX:XkX                      E./ Q.mXKXAXAXZXZXZXxX<.L :.7XiX7X:.q                 ",
"    oXXXBXdX1XrXgXeXBX:X=X                  '.d d y Q.xXNXVXVX9XBXOX .O ; /.VX2XT 7                 ",
"  !.1.BXiX3XdXrXeXgXrXCX:X-X                _.: d j 0 xXVXhXeXdX9XY O.N X u 9XsX XG                 ",
"  ~.h.iXiXtXiXuXuXuXuXaX6X.X&X            ..&X/ O O Y 6X,X7XrXfXaXu . # 4 Y 8X3Xm.'                 ",
"E.*X9XiXpX4XuXpXuXaXuXdXpX9XQ.^.          ( oXzX*.` :X.XI j.7X3XsX:Xg 6 =.jX#XC.M.i.h               ",
") *XZX1XpXgXeXfXpXuXfXpXtX8Xh.Q.          i ' bXmXxX9X6XzXbXMX0X0XBXxXxXzX%X| ] M. X-               ",
"s Y.nXNXuXrX1XpXrXrXpXrXiX4Xg.p.&X        f ~ ;XcX2X$.I 9 D E E ,XdXpX8X%Xs.{ C ]  X-               ",
"  c O *.SXNXaXhXfXfXrX3XiX<XK.z.i.^.      c ! ;XAX2X,X;.* A J s.0XiXyX8X%X| { C J }.;               ",
"      o.6 =.nXNXhXfXrXtX4XD.x.b.V.a.DX      ( oXAXsXsXh.D K J %X0X2XpX8X{.} S C ] }.=               ",
"          ).5 g nXNXdXI.z.H.c.v.V. Xi       M !.AXiX8XqXj.' i.qXdXiXiX8XwX| Z Z [ {.e               ",
"              m g Y :X,XJ.v.x.B.j.U           T..XsXiX3XqXN.<X8XfXuX3X3X<XC.[ [ Z.%X^ _.            ",
"                  M h U d.v.v.f.q O            .&.7XdXiX8XiXiXiXtX4XP.D.v.b.b.b.b.V. X:             ",
"                    n w %.g.V.i.: m           R.2.CXiX4X3XP.<X4XP.D.D.F.t.x.x.c.y.v.l.-             ",
"                        :.p.j.' '.            ~.k.dX4XD.A.A.K.b.G.x.F.r.t.G.r.x.F.D.XXO             ",
"                      ..-.,XE D             _.&XCXuXpXP.S.H.y.n.y.c.x.G.y.y.v.q.P.J.XXO             ",
"                      Y.:.J.f.P d           X.oXZX1XrXrXtXL.e.n.b.b.x.t.c.e.q.3XiX7XXX=             ",
"                    n Y. XN.V.j.U i         ..oXBXiXuXuXuXiX4Xq.z.n.c.y.c.4.@.8X8X0X+X=             ",
"                    1 w ,.m.7.7.5.^ X.    T.(.6X<XL.tXpX1XiX3X@.g.B.v.B.8.@.2X3X4X<Xa.o             ",
"                        _ q W p.p.;.d     y 3.BXJ.g.L.tXpXdX7Xg.8 #.K.6.@.,X7XiX<XN.W o             ",
"                            ) r >.^     &X1.6XfX4Xw.$.<XsXdX3XqXh.T p.8.P $.2X,X@XE #.q             ",
"                              = r 8   `.oX6XsXfXuXJ.p.#.$.,XBXcX&.T f.f.P q :.0 9 5.m.i.~.          ",
"                            f > 8 < E.r zXBXsXrXpXiX,X6.$.$.:.T F 6.K.V.H o L q P M.V.j.Q           ",
"                          O.@ f Q r e >.xXBX7XrXrXtXiXsX2X3.I q f.B.c.V.;.9 I @XB.b.n.#X8           ",
"                            1 i w G 7 nXBXsX1XdXfXyX3X3XpX2XL.P.r.x.b.c.B.K.B.B.b.b.F.N.6           ",
"                              1 > - = zX9XdXdX1XrXfXiXiX3XJ.F.r.G.r.c.c.G.t.x.x.c.x.z.3.;           ",
"                                  O O jXaXuXfXpXfXuXiXsX<XB.c.y.r.x.v.x.G.r.t.G.y.K.j.- X           ",
"                                    h /.9XrXrXrXuXiX3X3XB.v.b.n.n.v.x.x.r.F.t.t.H.N.|.:             ",
"                                      d h.iXyXU.tXP.F.t.H.z.9.9.9.4.4.u.t.x.t.v.N.k.5               ",
"                                      ; -.,XJ.S.S.v.G.x.z.p.i.i.i.7.4.4.4.e.n.z.$.7                 ",
"                                        w -.l.z.x.b.B.f.q : = = 9 H E E [ 0.4.E , -                 ",
"                                          q P 7.e.4.@.R <           Q 9 5.7.7.5.P >.'.              ",
"                                          U $.z.z.6.P Q               h 7 9 P %X$X,._ ).            ",
"                                        ^.;XcXvXh.L `                   b  ._ ^ G : ( X.            ",
"                                      > oX+X@X1.: #                           +.n n c               ",
"                                      a ` 0 y t 1                                                   ",
"                                        i X #                                                       "
};
